<svg id="visual" viewBox="0 0 900 600" width="900" height="600" xmlns="http://www.w3.org/2000/svg" xmlns:xlink="http://www.w3.org/1999/xlink" version="1.1"><g stroke-width="1" stroke-linejoin="bevel"><path d="M415.7 369L374.7 522L519.3 400Z" fill="#e4eaee" stroke="#e4eaee"></path><path d="M374.7 522L545.3 467L519.3 400Z" fill="#a79ee1" stroke="#a79ee1"></path><path d="M374.7 522L493.3 600L545.3 467Z" fill="#adc0eb" stroke="#adc0eb"></path><path d="M417.7 600L493.3 600L374.7 522Z" fill="#a6a7e5" stroke="#a6a7e5"></path><path d="M666.9 600L632.9 471L545.3 467Z" fill="#a7b0e8" stroke="#a7b0e8"></path><path d="M545.3 467L632.9 471L519.3 400Z" fill="#d8e4ed" stroke="#d8e4ed"></path><path d="M415.7 369L287.1 335L374.7 522Z" fill="#c3d7ed" stroke="#c3d7ed"></path><path d="M287.1 335L232.1 504L374.7 522Z" fill="#c3d7ed" stroke="#c3d7ed"></path><path d="M374.7 522L233.1 600L417.7 600Z" fill="#a79ee1" stroke="#a79ee1"></path><path d="M632.9 471L663.9 390L519.3 400Z" fill="#b3c8ec" stroke="#b3c8ec"></path><path d="M523.3 206L381.7 206L415.7 369Z" fill="#a7b0e8" stroke="#a7b0e8"></path><path d="M415.7 369L381.7 206L287.1 335Z" fill="#adc0eb" stroke="#adc0eb"></path><path d="M232.1 504L233.1 600L374.7 522Z" fill="#cddded" stroke="#cddded"></path><path d="M523.3 206L415.7 369L519.3 400Z" fill="#bacfec" stroke="#bacfec"></path><path d="M493.3 600L666.9 600L545.3 467Z" fill="#d8e4ed" stroke="#d8e4ed"></path><path d="M632.9 471L736.4 457L663.9 390Z" fill="#e4eaee" stroke="#e4eaee"></path><path d="M623.9 218L523.3 206L519.3 400Z" fill="#a9b8ea" stroke="#a9b8ea"></path><path d="M666.9 600L736.4 457L632.9 471Z" fill="#a6a7e5" stroke="#a6a7e5"></path><path d="M663.9 390L623.9 218L519.3 400Z" fill="#b3c8ec" stroke="#b3c8ec"></path><path d="M776.4 270L623.9 218L663.9 390Z" fill="#a6a7e5" stroke="#a6a7e5"></path><path d="M499.3 147L376.7 158L381.7 206Z" fill="#a79ee1" stroke="#a79ee1"></path><path d="M291.1 161L215.1 250L287.1 335Z" fill="#a7b0e8" stroke="#a7b0e8"></path><path d="M499.3 147L381.7 206L523.3 206Z" fill="#a6a7e5" stroke="#a6a7e5"></path><path d="M291.1 161L287.1 335L381.7 206Z" fill="#adc0eb" stroke="#adc0eb"></path><path d="M287.1 335L130.6 437L232.1 504Z" fill="#cddded" stroke="#cddded"></path><path d="M232.1 504L98.6 600L233.1 600Z" fill="#a7b0e8" stroke="#a7b0e8"></path><path d="M109.6 360L130.6 437L287.1 335Z" fill="#a6a7e5" stroke="#a6a7e5"></path><path d="M609.9 107L499.3 147L523.3 206Z" fill="#c3d7ed" stroke="#c3d7ed"></path><path d="M158.6 108L291.1 161L218.1 0Z" fill="#cddded" stroke="#cddded"></path><path d="M376.7 158L291.1 161L381.7 206Z" fill="#adc0eb" stroke="#adc0eb"></path><path d="M158.6 108L166.6 250L215.1 250Z" fill="#d8e4ed" stroke="#d8e4ed"></path><path d="M215.1 250L109.6 360L287.1 335Z" fill="#b3c8ec" stroke="#b3c8ec"></path><path d="M166.6 250L109.6 360L215.1 250Z" fill="#a6a7e5" stroke="#a6a7e5"></path><path d="M900 387L796.4 353L736.4 457Z" fill="#e4eaee" stroke="#e4eaee"></path><path d="M736.4 457L796.4 353L663.9 390Z" fill="#b3c8ec" stroke="#b3c8ec"></path><path d="M0 452L98.6 600L130.6 437Z" fill="#a9b8ea" stroke="#a9b8ea"></path><path d="M130.6 437L98.6 600L232.1 504Z" fill="#a79ee1" stroke="#a79ee1"></path><path d="M666.9 600L795.4 600L736.4 457Z" fill="#a9b8ea" stroke="#a9b8ea"></path><path d="M623.9 218L609.9 107L523.3 206Z" fill="#bacfec" stroke="#bacfec"></path><path d="M796.4 353L776.4 270L663.9 390Z" fill="#adc0eb" stroke="#adc0eb"></path><path d="M791.4 159L609.9 107L623.9 218Z" fill="#b3c8ec" stroke="#b3c8ec"></path><path d="M499.3 147L413.7 0L376.7 158Z" fill="#a9b8ea" stroke="#a9b8ea"></path><path d="M0 349L0 452L109.6 360Z" fill="#a6a7e5" stroke="#a6a7e5"></path><path d="M109.6 360L0 452L130.6 437Z" fill="#c3d7ed" stroke="#c3d7ed"></path><path d="M291.1 161L158.6 108L215.1 250Z" fill="#d8e4ed" stroke="#d8e4ed"></path><path d="M0 224L0 349L109.6 360Z" fill="#a9b8ea" stroke="#a9b8ea"></path><path d="M413.7 0L291.1 161L376.7 158Z" fill="#d8e4ed" stroke="#d8e4ed"></path><path d="M795.4 600L900 493L736.4 457Z" fill="#c3d7ed" stroke="#c3d7ed"></path><path d="M900 238L791.4 159L776.4 270Z" fill="#b3c8ec" stroke="#b3c8ec"></path><path d="M776.4 270L791.4 159L623.9 218Z" fill="#b3c8ec" stroke="#b3c8ec"></path><path d="M900 238L776.4 270L796.4 353Z" fill="#a7b0e8" stroke="#a7b0e8"></path><path d="M0 224L109.6 360L166.6 250Z" fill="#b3c8ec" stroke="#b3c8ec"></path><path d="M526.3 0L499.3 147L609.9 107Z" fill="#b3c8ec" stroke="#b3c8ec"></path><path d="M526.3 0L413.7 0L499.3 147Z" fill="#c3d7ed" stroke="#c3d7ed"></path><path d="M900 493L900 387L736.4 457Z" fill="#a6a7e5" stroke="#a6a7e5"></path><path d="M615.9 0L526.3 0L609.9 107Z" fill="#adc0eb" stroke="#adc0eb"></path><path d="M0 452L0 600L98.6 600Z" fill="#adc0eb" stroke="#adc0eb"></path><path d="M795.4 600L900 600L900 493Z" fill="#bacfec" stroke="#bacfec"></path><path d="M795.4 0L615.9 0L609.9 107Z" fill="#d8e4ed" stroke="#d8e4ed"></path><path d="M158.6 108L0 224L166.6 250Z" fill="#bacfec" stroke="#bacfec"></path><path d="M900 387L900 238L796.4 353Z" fill="#b3c8ec" stroke="#b3c8ec"></path><path d="M791.4 159L795.4 0L609.9 107Z" fill="#cddded" stroke="#cddded"></path><path d="M413.7 0L218.1 0L291.1 161Z" fill="#b3c8ec" stroke="#b3c8ec"></path><path d="M158.6 108L0 89L0 224Z" fill="#b3c8ec" stroke="#b3c8ec"></path><path d="M218.1 0L112.6 0L158.6 108Z" fill="#b3c8ec" stroke="#b3c8ec"></path><path d="M900 238L900 115L791.4 159Z" fill="#c3d7ed" stroke="#c3d7ed"></path><path d="M900 115L795.4 0L791.4 159Z" fill="#b3c8ec" stroke="#b3c8ec"></path><path d="M112.6 0L0 89L158.6 108Z" fill="#a6a7e5" stroke="#a6a7e5"></path><path d="M112.6 0L0 0L0 89Z" fill="#e4eaee" stroke="#e4eaee"></path><path d="M900 115L900 0L795.4 0Z" fill="#d8e4ed" stroke="#d8e4ed"></path></g></svg>